<svg width="51" height="52" viewBox="0 0 51 52" fill="none" xmlns="http://www.w3.org/2000/svg">
<path d="M50.1009 25.7231C50.1009 38.7143 40.7218 49.4541 28.5384 51.1974C27.3989 51.3603 26.2333 51.4447 25.0505 51.4447C23.6844 51.4447 22.3443 51.3322 21.0374 51.1159C9.11084 49.1445 0 38.5247 0 25.7216C0 11.5159 11.2154 0 25.0505 0C38.8855 0 50.1009 11.5159 50.1009 25.7216V25.7231Z" fill="white" fill-opacity="0.2"/>
<path d="M37.7863 21.421C37.6282 19.8427 37.2854 18.0997 36.0253 17.1826C35.0479 16.4717 33.7646 16.4456 32.5668 16.4468C30.0338 16.4492 27.5008 16.4516 24.9678 16.4539C22.5317 16.4563 20.0957 16.4587 17.6596 16.461C16.6418 16.461 15.6528 16.3805 14.7077 16.8319C13.8953 17.2206 13.2606 17.9588 12.8798 18.7799C12.3489 19.9233 12.237 21.2172 12.1735 22.4815C12.0558 24.7826 12.0685 27.0908 12.2105 29.3895C12.3132 31.0685 12.5751 32.9229 13.8387 33.9929C14.9593 34.9408 16.5402 34.987 17.9919 34.9882C22.6033 34.9917 27.2146 34.9953 31.8259 35C32.4168 35 33.0342 34.9894 33.6365 34.9218C34.8228 34.7903 35.9526 34.4419 36.7142 33.5402C37.4828 32.6314 37.6801 31.3648 37.7978 30.1668C38.0817 27.2614 38.0782 24.3252 37.7863 21.421ZM22.3009 29.7983V21.6485L29.1752 25.7234L22.3009 29.7983Z" fill="#F4803A"/>
</svg>
