<svg width="51" height="52" viewBox="0 0 51 52" fill="none" xmlns="http://www.w3.org/2000/svg">
<path d="M50.1009 25.7231C50.1009 38.7143 40.7218 49.4541 28.5384 51.1974C27.3989 51.3603 26.2333 51.4447 25.0505 51.4447C23.6844 51.4447 22.3443 51.3322 21.0374 51.1159C9.11083 49.1445 0 38.5247 0 25.7216C0 11.5159 11.2155 0 25.0505 0C38.8855 0 50.1009 11.5159 50.1009 25.7216V25.7231Z" fill="white" fill-opacity="0.2"/>
<path d="M13.3702 24.663C13.4205 24.6362 13.4707 24.6116 13.521 24.5881C14.3774 24.1739 15.2451 23.7865 16.1118 23.399C16.159 23.399 16.238 23.3434 16.2811 23.323C16.3478 23.2931 16.4144 23.2631 16.4821 23.2331C16.6103 23.1753 16.7396 23.1186 16.8678 23.0608C17.1252 22.9463 17.3816 22.8307 17.6391 22.7162C18.153 22.4872 18.6679 22.257 19.1817 22.0269C20.2105 21.5678 21.2392 21.1087 22.268 20.6495C23.2968 20.1904 24.3255 19.7312 25.3543 19.2721C26.383 18.8129 27.4118 18.3538 28.4406 17.8947C29.4693 17.4355 30.4981 16.9764 31.5268 16.5172C31.7556 16.4156 32.0038 16.2614 32.2479 16.2165C32.4541 16.179 32.6551 16.1041 32.8612 16.0634C33.2541 15.9853 33.6879 15.9532 34.0644 16.1234C34.1946 16.1822 34.3136 16.2657 34.4152 16.3695C34.8921 16.8629 34.8254 17.672 34.7249 18.3656C34.0213 23.1989 33.3177 28.0311 32.613 32.8644C32.5166 33.5269 32.3864 34.2547 31.8838 34.6732C31.4591 35.0274 30.855 35.0681 30.3319 34.9172C29.8078 34.7663 29.3452 34.4484 28.8919 34.1348C27.0108 32.8355 25.1297 31.5351 23.2486 30.2359C22.8014 29.9265 22.3039 29.5241 22.309 28.9644C22.3121 28.6272 22.5049 28.3265 22.7019 28.0589C24.3358 25.8349 26.6959 24.3055 28.4498 22.1832C28.697 21.8846 28.8919 21.343 28.5524 21.1707C28.3503 21.068 28.1175 21.2071 27.9339 21.3409C25.6148 23.0223 23.2957 24.7037 20.9767 26.384C20.2197 26.932 19.4269 27.497 18.515 27.6319C17.6996 27.7528 16.878 27.5163 16.0883 27.2734C15.4267 27.07 14.7662 26.8624 14.1077 26.6473C13.7579 26.5338 13.3969 26.4118 13.1261 26.1539C12.8553 25.897 12.7004 25.4646 12.8635 25.1221C12.9651 24.907 13.164 24.7711 13.3723 24.6609L13.3702 24.663Z" fill="#F4803A"/>
</svg>
