<svg width="51" height="52" viewBox="0 0 51 52" fill="none" xmlns="http://www.w3.org/2000/svg">
<path d="M50.1024 25.7216C50.1024 38.7128 40.7232 49.4526 28.5399 51.1959C27.4003 51.3588 26.2348 51.4432 25.0519 51.4432C23.6859 51.4432 22.3458 51.3307 21.0389 51.1144C9.1094 49.143 0 38.5247 0 25.7216C0 11.5159 11.2154 0 25.0505 0C38.8855 0 50.1009 11.5159 50.1009 25.7216H50.1024Z" fill="white" fill-opacity="0.2"/>
<path d="M28.0954 30.8573C23.7188 30.8563 20.1575 27.1995 20.1565 22.7067C20.1584 21.568 21.0602 20.6411 22.1682 20.6411C22.282 20.6411 22.3949 20.6511 22.5019 20.6711C22.7392 20.711 22.9639 20.7939 23.1721 20.9178C23.2023 20.9358 23.2227 20.9657 23.2276 21.0007L23.6896 23.9942C23.6955 24.0292 23.6848 24.0642 23.6624 24.0901C23.4066 24.3808 23.0807 24.5896 22.7188 24.6944L22.5447 24.7454L22.6108 24.9192C23.2081 26.4784 24.4222 27.7259 25.9416 28.3392L26.1109 28.4071L26.1595 28.2274C26.2617 27.8548 26.465 27.5202 26.7481 27.2585C26.7685 27.2395 26.7957 27.2285 26.824 27.2285C26.8298 27.2285 26.8366 27.2285 26.8424 27.2305L29.7569 27.705C29.7919 27.7109 29.8201 27.7309 29.8386 27.7619C29.9583 27.9756 30.039 28.2074 30.0789 28.4501C30.0974 28.559 30.1071 28.6728 30.1071 28.7927C30.1071 29.9304 29.2044 30.8563 28.0954 30.8583V30.8573Z" fill="#F4803A"/>
<path d="M35.8561 24.736C35.6198 21.9972 34.3979 19.4571 32.4154 17.5842C30.4212 15.6994 27.8326 14.6616 25.1263 14.6616C19.1865 14.6616 14.3537 19.6239 14.3537 25.7229C14.3537 27.7695 14.9034 29.7642 15.9442 31.5012L13.6232 36.7781L21.0572 35.965C22.35 36.5084 23.7187 36.7841 25.1263 36.7841C25.497 36.7841 25.8764 36.7641 26.2567 36.7242C26.5923 36.6872 26.9309 36.6333 27.2645 36.5643C32.2393 35.5325 35.8707 30.9988 35.899 25.7818V25.7229C35.899 25.3902 35.8844 25.0586 35.8552 24.737L35.8561 24.736ZM21.3422 33.6487L17.2293 34.0982L18.4579 31.3044L18.2128 30.9658C18.1943 30.9408 18.1768 30.9159 18.1563 30.8879C17.0902 29.3766 16.5269 27.5907 16.5269 25.7219C16.5269 20.8525 20.385 16.892 25.1263 16.892C29.569 16.892 33.3337 20.4509 33.6966 24.9937C33.716 25.2374 33.7258 25.4821 33.7258 25.7229C33.7258 25.7918 33.7248 25.8597 33.7228 25.9316C33.6314 30.0049 30.8599 33.4639 26.9834 34.3449C26.6877 34.4128 26.3842 34.4638 26.0816 34.4977C25.7674 34.5347 25.4454 34.5527 25.1254 34.5527C23.9862 34.5527 22.8792 34.3259 21.8325 33.8784C21.7167 33.8305 21.6029 33.7796 21.4959 33.7266L21.3403 33.6497L21.3422 33.6487Z" fill="#F4803A"/>
</svg>
