<svg width="51" height="52" viewBox="0 0 51 52" fill="none" xmlns="http://www.w3.org/2000/svg">
<path d="M50.1009 25.7231C50.1009 38.7143 40.7218 49.4541 28.5384 51.1974C27.3989 51.3603 26.2333 51.4447 25.0505 51.4447C23.6844 51.4447 22.3443 51.3322 21.0374 51.1159C9.11084 49.1445 0 38.5247 0 25.7216C0 11.5159 11.2154 0 25.0505 0C38.8855 0 50.1009 11.5159 50.1009 25.7216V25.7231Z" fill="white" fill-opacity="0.2"/>
<path d="M34.9994 30.9738V33.9846C35.0005 34.2642 34.9432 34.5408 34.831 34.7969C34.7188 35.053 34.5542 35.2829 34.3478 35.4718C34.1415 35.6608 33.8978 35.8047 33.6325 35.8942C33.3672 35.9838 33.0861 36.017 32.8072 35.9919C29.7128 35.6563 26.7404 34.601 24.1289 32.9108C21.6992 31.3699 19.6393 29.3141 18.0953 26.8892C16.3959 24.271 15.3382 21.2901 15.0082 18.1879C14.983 17.9104 15.0161 17.6307 15.1052 17.3666C15.1943 17.1025 15.3376 16.8599 15.5258 16.6541C15.7141 16.4483 15.9432 16.2838 16.1986 16.1712C16.454 16.0586 16.7301 16.0004 17.0093 16.0001H20.0261C20.5141 15.9953 20.9872 16.1678 21.3572 16.4854C21.7273 16.803 21.969 17.244 22.0373 17.7263C22.1646 18.6898 22.4007 19.6359 22.7412 20.5464C22.8765 20.9056 22.9058 21.296 22.8256 21.6713C22.7454 22.0466 22.559 22.3911 22.2887 22.664L21.0116 23.9386C22.4431 26.4512 24.5276 28.5315 27.0451 29.9602L28.3222 28.6856C28.5956 28.4158 28.9408 28.2298 29.3169 28.1498C29.6929 28.0698 30.0841 28.099 30.444 28.234C31.3564 28.5738 32.3043 28.8095 33.2698 28.9365C33.7582 29.0053 34.2044 29.2509 34.5233 29.6265C34.8422 30.0021 35.0116 30.4817 34.9994 30.9738Z" fill="#F4803A" stroke="#F4803A" stroke-linecap="round" stroke-linejoin="round"/>
</svg>
